<?xml version="1.0" standalone="no"?>
<!DOCTYPE svg PUBLIC "-//W3C//DTD SVG 1.1//EN" "http://www.w3.org/Graphics/SVG/1.1/DTD/svg11.dtd" >
<svg xmlns="http://www.w3.org/2000/svg">
<metadata>
Created by FontForge 20120731 at Sun Jan 17 21:28:51 2016
 By Ads
</metadata>
<defs>
<font id="iconfont" horiz-adv-x="1024" >
  <font-face 
    font-family="iconfont"
    font-weight="500"
    font-stretch="normal"
    units-per-em="1024"
    panose-1="2 0 6 3 0 0 0 0 0 0"
    ascent="896"
    descent="-128"
    x-height="792"
    bbox="-0.25 -212 1463.97 896"
    underline-thickness="50"
    underline-position="-100"
    unicode-range="U+0078-E616"
  />
<missing-glyph horiz-adv-x="374" 
d="M34 0v682h272v-682h-272zM68 34h204v614h-204v-614z" />
    <glyph glyph-name=".notdef" horiz-adv-x="374" 
d="M34 0v682h272v-682h-272zM68 34h204v614h-204v-614z" />
    <glyph glyph-name=".null" horiz-adv-x="0" 
 />
    <glyph glyph-name="nonmarkingreturn" horiz-adv-x="341" 
 />
    <glyph glyph-name="x" unicode="x" horiz-adv-x="1001" 
d="M281 543q-27 -1 -53 -1h-83q-18 0 -36.5 -6t-32.5 -18.5t-23 -32t-9 -45.5v-76h912v41q0 16 -0.5 30t-0.5 18q0 13 -5 29t-17 29.5t-31.5 22.5t-49.5 9h-133v-97h-438v97zM955 310v-52q0 -23 0.5 -52t0.5 -58t-10.5 -47.5t-26 -30t-33 -16t-31.5 -4.5q-14 -1 -29.5 -0.5
t-29.5 0.5h-32l-45 128h-439l-44 -128h-29h-34q-20 0 -45 1q-25 0 -41 9.5t-25.5 23t-13.5 29.5t-4 30v167h911zM163 247q-12 0 -21 -8.5t-9 -21.5t9 -21.5t21 -8.5q13 0 22 8.5t9 21.5t-9 21.5t-22 8.5zM316 123q-8 -26 -14 -48q-5 -19 -10.5 -37t-7.5 -25t-3 -15t1 -14.5
t9.5 -10.5t21.5 -4h37h67h81h80h64h36q23 0 34 12t2 38q-5 13 -9.5 30.5t-9.5 34.5q-5 19 -11 39h-368zM336 498v228q0 11 2.5 23t10 21.5t20.5 15.5t34 6h188q31 0 51.5 -14.5t20.5 -52.5v-227h-327z" />
    <glyph glyph-name="uniE600" unicode="&#xe600;" 
d="M172.5 769q3.5 0 5.5 -2l193 -193q3 -3 3 -6t-3 -5l-74 -72q-9 -10 -14.5 -22.5t-5.5 -26t5 -26t15 -22.5l309 -309q20 -20 48 -20q29 0 49 21l71 74q3 2 6 2t6 -2l193 -193q2 -3 2 -6.5t-2 -6.5l-86 -85q-38 -38 -102 -38q-32 0 -56 11l-1 1l-2 1q-4 1 -11.5 4t-30 14.5
t-47.5 25.5t-61.5 38.5t-74 52.5t-84 68.5t-90.5 85.5q-124 125 -212 269q-44 72 -64 120l-1 2l-1 2q-18 34 -10 80.5t36 75.5l85 85q3 2 6.5 2zM172 812q-10 0 -19.5 -4t-16.5 -11l-85 -85q-25 -25 -38.5 -61.5t-12.5 -75t17 -69.5q4 -8 10.5 -22.5t31.5 -59.5t54.5 -90
t80.5 -109t108 -122q64 -65 130.5 -119.5t115.5 -86t88.5 -54t59.5 -31.5l21 -8q33 -16 74 -16q8 0 16 0.5t16.5 2t16.5 3.5t15.5 4.5t15 5.5t15 7t14 8.5t12.5 9t11 10.5l86 85q15 15 15 36.5t-15 36.5l-193 193q-8 7 -17 11t-19 4t-19.5 -4t-16.5 -12l-72 -74
q-7 -7 -18 -7q-5 0 -9.5 1.5t-8.5 5.5l-309 309q-8 8 -8 18.5t8 17.5l74 72q15 15 15.5 36t-14.5 36l-193 193q-4 4 -8.5 6.5t-9 4.5t-9.5 3t-10 1z" />
    <glyph glyph-name="uniE601" unicode="&#xe601;" 
d="M275 812q58 0 83 -13q12 -2 18.5 -5.5t16 -19.5t17 -46t17.5 -85t21 -138l6 -26l-102 -77q13 -47 42.5 -93t66.5 -81.5t65.5 -58.5t55.5 -42l90 77l26 -6q128 -45 192 -58q51 -9 83 -51q26 -43 6 -122q-24 -81 -91 -127t-158 -46q-18 0 -35.5 1.5t-36 4.5t-38 8t-38.5 12
q-67 24 -132.5 67t-118.5 95t-100 112.5t-82.5 121.5t-61.5 118.5t-40 106t-15 83.5q4 75 24 130.5t46 84.5t61 46.5t60.5 22t51.5 4.5zM352 754q-2 0 -14 2.5t-26.5 4.5t-35 3.5t-41 -3t-42.5 -12.5t-41 -26t-35 -43.5t-26.5 -65.5t-13.5 -90q2 -45 27 -115t72 -152
t108 -159.5t143 -143t168 -96.5q126 -45 218 -11.5t121 127.5q26 94 -57 115q-31 5 -82.5 19.5t-86.5 25.5l-36 12l-96 -83q-10 6 -26.5 16.5t-61 46.5t-80.5 74.5t-71.5 97t-48.5 117.5l109 77q6 6 -13 132t-32 130z" />
    <glyph glyph-name="uniE602" unicode="&#xe602;" 
d="M508 808q-113 0 -209.5 -56.5t-152.5 -153.5t-56 -212q0 -86 33 -164t89 -134.5t133.5 -90t162.5 -33.5q114 0 210 56.5t152.5 154t56.5 211.5q0 43 -9 85t-24.5 79.5t-38.5 71.5t-51 62.5t-62 51.5t-71 39t-78.5 24.5t-84.5 8.5zM508 -4q-127 0 -230 77q19 7 53 20
q77 27 89 35q32 20 23 112v6l-16 14q-4 37 -13 51q-6 11 -15 35t-15 42l-2 5l-4 3q-1 1 -2.5 3t-4 7t-2.5 10t2.5 10t4.5 6l2 3l8 6l-2 10q-12 64 -12 94q0 34 14.5 58.5t38.5 35t46 15t46 4.5q25 0 45.5 -5t40.5 -16.5t31.5 -35t11.5 -56.5q0 -11 -0.5 -25t-1.5 -25.5
t-2 -22.5t-1.5 -16t-0.5 -6l-1 -9l7 -6q9 -8 10 -19q0 -11 -10 -20l-4 -3l-1 -5q-2 -3 -5.5 -13.5t-11.5 -31t-14 -33.5q-8 -14 -12 -50l-16 -14l-1 -6q-1 -7 -1 -14v-20q0 -12 1 -23t3.5 -22t7.5 -20t12 -13q13 -8 91 -32l52 -16q-106 -84 -239 -84zM775 104q-16 6 -71 23
q-73 22 -82 28q-6 4 -8.5 26.5t-0.5 49.5l15 14l1 6q4 34 9 44q6 12 13.5 30t11 28.5t7.5 20.5q3 3 5.5 6.5t5.5 9t5 12t2 14.5q0 12 -4.5 21.5t-10.5 16.5q5 56 5 91q0 69 -42 107t-119 38q-84 0 -130.5 -38t-46.5 -107q0 -36 11 -92q-6 -7 -10.5 -16t-4.5 -21
q0 -14 6 -24.5t13 -17.5q19 -58 32 -79q5 -10 8 -44l1 -6l16 -14q1 -19 0.5 -34.5t-3.5 -27t-6 -14.5q-4 -2 -12 -5.5t-22 -8.5t-22.5 -8.5t-26.5 -9.5q-29 -11 -44.5 -16.5t-25.5 -10.5q-60 55 -94 130.5t-34 159.5q0 106 52 196t141 142t193.5 52t193.5 -52t140.5 -142
t51.5 -196q0 -82 -31.5 -155t-87.5 -127z" />
    <glyph glyph-name="uniE603" unicode="&#xe603;" 
d="M499 467q20 0 32 12t12 32q0 10 -3.5 18t-9 13.5t-13.5 9t-18 3.5q-21 0 -37 -12.5t-16 -31.5q0 -4 1 -7l2 -8q1 -3 3 -6t5 -6t6 -5l6 -4q3 -2 6.5 -3.5t7.5 -2.5t8 -1.5t8 -0.5zM253 555q-21 0 -37 -12.5t-16 -31.5t16 -31.5t37 -12.5q20 0 32 12t12 32q0 13 -5.5 23
t-15.5 15.5t-23 5.5zM1024 186q0 104 -84 182t-203 87v3v3q-24 111 -130 185t-240 74q-151 0 -259 -92q-103 -88 -108 -212v-11q0 -142 138 -243l-32 -94q-1 -3 -0.5 -6t1.5 -6t4 -5q2 -2 5 -3t5 -1q4 0 8 2l117 59l15 -3q18 -4 27.5 -6t24 -4t27.5 -3t27 -1h11q6 0 12 0.5
t11 0.5q3 0 5 1t3.5 2t2.5 3q33 -81 114.5 -132t183.5 -51q37 0 103 17l91 -50q2 -1 3.5 -1.5t3.5 -0.5l11 3q8 7 5 18l-23 77q120 95 120 208zM399 124q-16 -1 -32 -1q-13 0 -25 1t-25.5 3t-23 3.5t-26.5 5.5l-20 4q-5 1 -10 -1l-88 -45l23 69q0 2 0.5 4.5t0 4t-1.5 3.5
t-2.5 3.5t-2.5 3.5q-134 93 -134 223q0 77 45 142t122 103t168 38q60 0 117.5 -17.5t102 -48.5t76 -74t42.5 -92q-63 0 -120.5 -22t-99 -58t-66 -86t-24.5 -104q0 -11 1 -21.5t3 -20.5t5 -21q-4 1 -5 1zM875 -4q-8 -6 -5 -17l15 -50l-62 34q-2 1 -4 1.5t-4 0.5t-4 -1
q-67 -17 -101 -17q-117 0 -200 70t-83 169q0 39 14.5 75.5t40.5 65.5t61 51.5t78 34.5t89 12q56 0 108 -19.5t90 -51.5t61 -76t23 -92q0 -49 -30 -98t-87 -92zM613 300q-13 0 -24 -11t-11 -24t11 -24t24 -11q19 0 31.5 10.5t12.5 24.5t-12.5 24.5t-31.5 10.5zM806 300
q-13 0 -24 -11t-11 -24t11 -24t24 -11q19 0 31.5 10.5t12.5 24.5q0 23 -26 32q-9 3 -18 3z" />
    <glyph glyph-name="uniE604" unicode="&#xe604;" 
d="M298 347q-70 0 -119 49.5t-49 119t49 119t119 49.5q46 0 84.5 -22.5t61.5 -61.5t23 -85q0 -69 -49.5 -118.5t-119.5 -49.5zM298 633q-48 0 -82.5 -34.5t-34.5 -83t34.5 -83t82.5 -34.5q32 0 59 15.5t42.5 43t15.5 59t-15.5 58.5t-42.5 43t-59 16zM728 347
q-70 0 -119.5 49.5t-49.5 118.5q0 46 22.5 85t61.5 61.5t85 22.5q69 0 118.5 -49.5t49.5 -119.5q0 -81 -63 -131q-47 -37 -105 -37zM727.5 633q-31.5 0 -58.5 -16t-43 -43t-16 -59q0 -23 9.5 -45t25 -37.5t37.5 -25t46 -9.5q48 0 82.5 34.5t34.5 82.5q0 32 -16 59t-43 43
t-58.5 16zM296 -82q-69 0 -118.5 49.5t-49.5 119.5q0 45 22.5 84t61.5 61.5t84 22.5q70 0 119.5 -49.5t49.5 -118.5q0 -46 -22.5 -85t-61.5 -61.5t-85 -22.5zM296 204q-23 0 -45 -9.5t-37.5 -25t-25 -37.5t-9.5 -45q0 -32 16 -59t43 -43t58 -16q49 0 83.5 34.5t34.5 83
t-34.5 83t-83.5 34.5zM726 -82q-70 0 -119.5 49.5t-49.5 119.5q0 34 13.5 65t36 53.5t54 36t65.5 13.5q70 0 119 -49.5t49 -118.5q0 -81 -63 -132q-47 -36 -105 -37zM726 204q-24 0 -45.5 -9.5t-37.5 -25t-25 -37.5t-9 -45q0 -49 34 -83.5t82.5 -34.5t83 34.5t34.5 83.5
q0 31 -15.5 58.5t-42.5 43t-59 15.5z" />
    <glyph glyph-name="uniE605" unicode="&#xe605;" 
d="M1007 270l-495 463l-495 -462q-7 -7 -7.5 -17t6.5 -17t16.5 -7.5t17.5 6.5l462 431l462 -433q4 -3 8 -4.5t9 -1.5q10 0 17 8q7 7 6.5 17t-7.5 17zM856 260q-10 0 -17 -7t-7 -17v-368h-192v256h-256v-256h-192v368q0 10 -7 17t-17 7t-17 -7t-7 -17v-416h288v256h160v-256
h288v416q0 10 -7 17t-17 7zM688 604h144v-128q0 -10 7 -17t17 -7t17 7t7 17v176h-192q-10 0 -17 -7t-7 -17t7 -17t17 -7z" />
    <glyph glyph-name="uniE606" unicode="&#xe606;" 
d="M64 -64v896h896v-896h-896zM320 256v-64v-192h64v128h128q29 0 46.5 17.5t17.5 46.5v64q0 29 -17.5 46.5t-46.5 17.5h-128h-64v-64zM896 768h-768v-768h64v704h704v64zM896 128q0 64 -64 64h-128v64h192q0 29 -17.5 46.5t-46.5 17.5h-128q-29 0 -46.5 -17.5t-17.5 -46.5
v-64q0 -7 2 -16t8 -20.5t20 -19.5t34 -8h128v-64h-192q0 -29 17.5 -46.5t46.5 -17.5h128q29 0 46.5 17.5t17.5 46.5v64zM512 192h-128v64h128v-64z" />
    <glyph glyph-name="uniE607" unicode="&#xe607;" 
d="M33 -142q7 91 13.5 140.5t26 153.5t36 167t43.5 139q27 77 60 162l34 86l71 1q12 -27 22 -50.5t18.5 -43t16.5 -34.5q21 -48 39 -89q9 -22 20 -49t24 -60q25 -65 39 -112l31 -105q38 106 52.5 140.5t51.5 121.5t51 116l46 93l32 73h73q27 -80 41 -125.5t31 -115.5
t34 -154q18 -84 30 -170q7 -44 10.5 -79.5t4.5 -62.5l7 -130l-186 -10q8 66 14 121t9 142q2 43 1.5 84t-3 79.5t-7 75t-9.5 70.5l-24 142q-40 -94 -58.5 -142t-45 -123.5t-49 -153.5t-29.5 -128l-25 -154h-108q-6 35 -10.5 64t-8.5 51q-7 45 -16 90.5t-20 92.5
q-11 48 -31 113t-48 145q-27 79 -38 111l-16 45q-23 -92 -34 -144.5t-21.5 -126t-12 -143.5t1.5 -133l6 -174z" />
    <glyph glyph-name="uniE608" unicode="&#xe608;" 
d="M369 -212h-71l-76 11l-53 19l-28 22l-9 14l-5 17q-1 2 -1 4v4q0 2 1 4v4q0 2 1 4l1 15q0 2 1 4l7 17l2 4q1 0 3 3l1 1l4 6q2 2 3 2l10 8q1 1 2.5 1.5t2.5 1.5l28 10l-16 15l-30 38l-15 26q-1 1 -1 3l-9 21l-31 -34l-15 -10l-19 -7l-10 -1h-3t-6 1.5t-6 3.5t-4 5
q-4 3 -4 5l-9 24l-5 38l1 36l11 54l13 35l26 48l33 43l53 48l-2 8v3v17l1 5l9 31l10 17l1 15l11 32l4 6v15l7 42l15 45l20 42l40 56l31 34l33 29l34 20l66 25l74 13l62 1l47 -5l62 -15l44 -18l28 -15l34 -23l30 -28l24 -28l24 -42l28 -79l8 -33l7 -44l21 -40l9 -42l1 -7
l-1 -7v-4v-2q0 -1 -1 -2l-4 -17q0 -1 -0.5 -2t-0.5 -2l-2 -5l56 -95l23 -57l9 -38l5 -60l-6 -37l-14 -35l-15 -16l-4 -2l-6 -3q-1 -1 -5 -2l-5 -1h-4q-3 0 -5 1q-4 1 -5 2l-5 2l-2 1t-2 2l-4 3l-11 11l-18 27l-12 -30l-39 -58l36 -19l25 -20q1 0 3 -2l11 -16l7 -23v-3
q0 -2 -1 -4v-3v-3l-1 -4l-2 -4l-1 -2l-1 -4l-19 -24l-18 -12l-40 -16l-50 -10l-71 -3l-78 9l-48 11l-55 17l-34 2l-43 -24l-47 -16l-43 -5l-12 -1h-1zM158 -123l9 -18l11 -9l32 -15l66 -12l24 -3h69l37 3l30 7l60 29l4 4q5 5 12 4l31 -3h11h4l40 -13l30 -9l88 -14l15 -1
l67 3l54 12l31 14l12 13l4 5q0 1 0.5 2.5t1.5 1.5v2v4h1l-6 15l-7 8l-19 14l-19 11l-31 16q-2 1 -3 2q-3 3 -4.5 8t-1 10t3.5 8l20 21l27 43l18 46q1 2 1 3l3 5q2 4 6 7l2 1q3 2 6 3t6.5 0.5t5.5 -1.5q5 -3 8 -8l35 -55l4 -2l6 4l11 19l5 22l3 21l-2 34l-10 52l-29 66
l-24 45l-26 37q0 1 -1 3l-1 1q-2 3 -2 7q0 2 0.5 4t0.5 3l10 38l-4 20l-7 23l-17 29l-3 6v4l-9 57l-22 71l-30 56l-57 57l-34 21l-39 17l-42 13l-73 11l-57 -1l-68 -12l-37 -12l-43 -22l-27 -20l-42 -43l-36 -53l-28 -63l-10 -52v-18q0 -6 -4 -11l-7 -12l-6 -26v-4
q0 -5 -2 -9l-9 -15l-8 -28l1 -12l3 -12q1 -5 -0.5 -10t-5.5 -8l-48 -41l-24 -27l-28 -44l-22 -52l-10 -48l-1 -17l1 -29l8 -31l10 3l24 21l20 30l2 7q1 1 2 2.5t2.5 3t3.5 2.5l1 1h2q7 4 15 0h1v-1q8 -4 10 -11l9 -30l29 -54l40 -40l13 -10q3 -2 6 -5l2 -4q1 -2 1.5 -4
t0.5 -4q0 -8 -5 -13q-2 -1 -3.5 -2t-3.5 -2l-6 -1l-40 -9l-3 -2q-1 0 -2 -0.5t-2 -0.5l-3 -2l-6 -3l-4 -5l-1 -1l-1 -2l-5 -14v-4v-6l-1 -5v-2v-2z" />
    <glyph glyph-name="uniE609" unicode="&#xe609;" 
d="M512 -127q-116 0 -214 57.5t-155.5 155.5t-57.5 214t57.5 214t155.5 155.5t214 57.5q69 0 134.5 -21.5t117.5 -61.5t92 -92t61.5 -117.5t21.5 -134.5q0 -116 -57.5 -214t-155.5 -155.5t-214 -57.5zM512 687q-53 0 -103 -14t-92.5 -39t-78 -60.5t-60.5 -78t-39 -93
t-14 -102.5q0 -105 52 -194t141 -141t194 -52t194 52t141 141t52 194t-52 194t-141 141t-194 52zM660 378q-12 -2 -23 0q-5 1 -10 7q-9 8 -9 21q0 7 2 12t7 10q9 9 21.5 9t21.5 -9q2 -2 4 -4.5t3 -5.5t1.5 -5.5t0.5 -6.5q0 -13 -9 -21zM656 414l-2 2q-6 1 -11 0l-2 -2
q-3 -3 -3 -8q0 -2 1 -4t2 -3t3 -2t4 -1q3 0 5 0.5t3 2.5q3 3 3 7q0 5 -3 8zM610 165q-2 -1 -5 -1t-6.5 -0.5t-6.5 -0.5h-13q-11 0 -15 1.5t-9 15.5l-15 35q-2 4 -6.5 7t-9.5 3h-91q-2 0 -3.5 -0.5t-3.5 -1.5t-3.5 -2t-3 -2.5t-1.5 -3.5l-15 -35q-2 -5 -4 -9t-3 -5
q-3 -3 -18 -3h-12q-4 0 -9.5 0.5t-7.5 1.5l-2 3l-2 2q1 7 6 17l102 234l2 4l2 4q1 2 2 3t1 2q3 3 18 3h6q11 0 15 -1t10 -16l99 -233q4 -10 5 -17l-1 -2zM584 193l-91 214q-1 2 -2.5 4t-2.5 3l-4 2q-1 1 -3 1q-7 0 -12 -10l-94 -214q-2 -4 -1.5 -7t3 -3t5.5 3t5 7l15 36
q4 10 6.5 13t18.5 3h104q11 0 15 -1q1 0 3 -2.5t4 -6t3 -6.5l14 -36q1 -2 2.5 -4t3.5 -3l2 -2q2 -1 4 -1q6 0 2 10zM537 255q-6 -2 -17 -2h-81q-12 0 -18 2l-2 3l-2 3q0 2 2 7t3 10l44 104q5 10 7.5 13t6.5 3l4 -1q4 -1 10 -16l42 -103q4 -11 5 -17l-2 -3zM512 284l-28 68
q-4 11 -8 1l-29 -69q-1 -2 -1 -4t1 -3.5t2.5 -2.5t4.5 -1h51q4 0 6.5 3.5t0.5 7.5zM646 351h5q11 0 16 -2.5t5 -18.5v-146v-4q0 -2 -0.5 -4.5t-1 -4.5t-1.5 -3.5t-2 -2.5q-2 -1 -6.5 -1.5t-9.5 -0.5h-5q-3 0 -6.5 0.5t-6 1t-4.5 0.5q-1 1 -3 7.5t-2 11.5v146q0 4 1 9t2 7
q2 5 19 5zM644 194q0 -11 4 -11q2 0 3 3.5t1 7.5v126q0 10 -4 11q-4 0 -4 -11v-126z" />
    <glyph glyph-name="uniE60A" unicode="&#xe60a;" 
d="M512 -212q-16 0 -44 26.5t-54.5 60t-55 74.5t-41.5 61t-18 28q-18 29 -36 59.5t-42 77.5t-42 89.5t-30.5 89.5t-12.5 82q0 102 50.5 188.5t137 137t188.5 50.5q115 0 210 -64q4 -3 6 -7t1.5 -9t-2.5 -9q-5 -7 -12.5 -8.5t-13.5 3.5q-85 57 -189 57q-137 0 -236 -95
q-98 -96 -103 -232v-12q0 -68 46.5 -174t106 -198t114 -162t73.5 -77q20 6 75 76.5t113.5 163.5t104 199.5t45.5 171.5q0 96 -50 177q-4 7 -2 14.5t8 11.5q4 2 9 2t9.5 -2t7.5 -6q27 -45 41 -95t14 -102q0 -44 -17.5 -102.5t-45.5 -117t-51 -99.5t-46 -79q-4 -5 -8 -11.5
t-15.5 -24t-22.5 -34t-27 -39t-30.5 -41t-31 -38t-30.5 -32.5t-27.5 -21.5t-23.5 -8.5zM512 280q-77 0 -131.5 54t-54.5 131t54.5 131.5t131.5 54.5t131.5 -54.5t54.5 -131.5q0 -30 -9.5 -58.5t-27 -51t-40 -40t-51 -26.5t-58.5 -9zM512 614q-40 0 -74.5 -20t-54.5 -54
t-20 -75q0 -61 43.5 -105t105.5 -44q40 0 74.5 20t54.5 54.5t20 75t-20 74.5t-54.5 54t-74.5 20z" />
    <glyph glyph-name="uniE60B" unicode="&#xe60b;" 
d="M843 -142h-721q-17 0 -31 8.5t-22 22.5t-8 30v597q0 25 17.5 43t43.5 18h545q6 0 10.5 -4.5t4.5 -11t-4.5 -11t-10.5 -4.5h-545q-13 0 -22 -9t-9 -21v-597q0 -4 1.5 -9t4.5 -8.5t6.5 -6.5t8.5 -4.5t10 -1.5h721q13 0 21.5 9t8.5 21v642q0 4 1.5 6.5t3.5 4.5t5 3.5t6 1.5
t6 -1.5t5 -3.5t3 -4.5t1 -6.5v-642q0 -8 -2 -16t-6 -14.5t-9.5 -12t-12.5 -9.5t-15 -6.5t-16 -2.5zM444 180q-21 0 -32 14q-12 16 -7 40l9 35q3 13 10.5 29t17 30.5t19.5 24.5l369 371q17 18 43 18t44 -18l29 -29q11 -11 15.5 -27t0 -32t-15.5 -27l-370 -372
q-10 -9 -24.5 -19t-30 -17.5t-29.5 -10.5l-34 -8q-8 -2 -14 -2zM873 712q-12 0 -21 -9l-370 -372q-11 -12 -23 -32.5t-16 -36.5l-8 -35q-1 -3 -1 -5.5t0.5 -4.5t1.5 -3q4 -5 14 -2l35 8q16 4 36.5 15.5t32.5 23.5l370 371q9 9 9 22t-9 22l-29 29q-4 4 -9.5 6.5t-12.5 2.5z
M770 -28h-373q-6 0 -10.5 4.5t-4.5 11.5v454q0 7 4.5 11.5t10.5 4.5h174q4 0 8 -2t6 -5.5t2 -8.5q0 -6 -4.5 -10.5t-11.5 -4.5h-159v-424h343v439q0 7 4.5 11.5t10.5 4.5q4 0 7.5 -2t5.5 -5.5t2 -8.5v-454q0 -7 -4.5 -11.5t-10.5 -4.5zM304 316h-122q-6 0 -10.5 4.5
t-4.5 10.5v111q2 14 15 16h122q6 0 10.5 -4.5t4.5 -11.5v-111q0 -2 -0.5 -4t-1.5 -3.5t-2.5 -3t-3 -2.5t-3.5 -1.5t-4 -0.5zM198 346h90v81h-90v-81zM304 144h-122q-6 0 -10.5 4.5t-4.5 10.5v112q0 6 4.5 10.5t10.5 4.5h122q6 0 10.5 -4.5t4.5 -10.5v-112q0 -6 -4.5 -10.5
t-10.5 -4.5zM198 175h90v81h-90v-81zM304 -28h-122q-6 0 -10.5 4.5t-4.5 11.5v111q0 7 4.5 11.5t10.5 4.5h122q6 0 10.5 -4.5t4.5 -11.5v-111q0 -7 -4.5 -11.5t-10.5 -4.5zM198 3h90v81h-90v-81z" />
    <glyph glyph-name="uniE60C" unicode="&#xe60c;" 
d="M948 736h-872q-19 0 -33 -13.5t-14 -33.5v-623q0 -19 14 -32.5t33 -13.5h296v-78l-62 -62v-16h404v16l-62 62v78h296q9 0 18 3.5t15 10t10 15t4 17.5v623q0 20 -14 33.5t-33 13.5zM932 144h-840v530h840v-530z" />
    <glyph glyph-name="uniE60D" unicode="&#xe60d;" 
d="M896 812h-768q-53 0 -90.5 -37.5t-37.5 -90.5q2 -735 2 -788q0 -26 18 -51t47.5 -41t60.5 -16h768q53 0 90.5 37.5t37.5 90.5v768q0 53 -37.5 90.5t-90.5 37.5zM833 -85h-642q-12 0 -23.5 4.5t-19.5 12.5t-13.5 18.5t-6.5 22.5v647q0 26 18.5 45t45.5 19h640q26 0 45 -19
t19 -45v-643q0 -17 -8.5 -31.5t-22.5 -22.5t-32 -8zM443 447q-20 13 -44 19q-23 6 -56 6h-141q-2 0 -3.5 -1t-2 -2.5t-0.5 -2.5v-364q0 -7 6 -7h91q7 0 7 7v112h41q7 0 13.5 0.5t12.5 1t11 2.5q16 3 30.5 9t26 14.5t21.5 17.5q8 9 14 19t10 22q9 24 9 51q0 16 -3 30.5
t-9 26.5t-14.5 22t-19.5 17zM379 324q-1 -3 -2.5 -5.5t-3.5 -5t-5 -5.5q-2 -2 -4.5 -3.5t-6.5 -3.5q-7 -3 -14 -4q-2 0 -4 -0.5t-4.5 -0.5t-5 -0.5t-5.5 -0.5h-8h-8h-8v96h6h10h8h8q3 0 6 -1h4q3 0 5 -0.5t5 -1.5l4 -2q3 -1 5 -2q8 -3 15 -12q1 -3 2.5 -5.5t1.5 -5.5l2 -6
v-6q0 -16 -3 -25zM749 319q-10 4 -19 6.5t-18 4.5q-18 4 -35 8q-27 6 -36 14q-2 1 -3.5 3t-2.5 4t-1.5 4.5t-0.5 5.5q0 4 1.5 7t3.5 6q3 3 6 5.5t7 4.5q5 2 9.5 3.5t8.5 2.5q2 0 4 0.5t4 0.5h4q2 0 4 0.5t5 0.5q29 0 57 -12q14 -6 26 -13t22 -15q1 -1 2 -1.5t2 -0.5h8
q7 0 7 7v83q0 4 -4 6q-7 3 -14 5.5t-14 4.5t-15 4l-16 4q-16 3 -33 5t-33 2q-33 0 -61.5 -8.5t-50.5 -24.5q-8 -6 -14 -12t-11 -13t-9 -14t-6.5 -15t-4 -16.5t-1.5 -17.5q0 -20 5 -37t15 -30q5 -7 11 -13t14 -11t17.5 -9.5t20.5 -8.5q5 -2 10 -3l10 -4l10 -2t11 -2
q10 -3 20 -5t19 -5q14 -3 23 -11q9 -6 9 -17q0 -10 -5 -16q-6 -6 -14 -10q-4 -1 -8.5 -2.5t-10.5 -1.5q-12 -2 -20 -2q-6 0 -12 0.5t-12 1.5t-12.5 2.5t-12.5 3.5t-13 4q-32 12 -58 35l-4 1h-9q-2 0 -4 -2t-2 -4v-87q0 -2 1 -3.5t3 -2.5q27 -12 60 -20q16 -4 34.5 -6
t40.5 -2q24 0 46 3.5t40 11.5t33 19q45 35 45 92q0 40 -20 65q-10 13 -24.5 22.5t-34.5 16.5z" />
    <glyph glyph-name="uniE60E" unicode="&#xe60e;" 
d="M701 234h-71v139h71q25 0 47 9.5t38.5 25.5t26 38.5t9.5 46.5q0 50 -35.5 85t-85.5 35q-32 0 -60 -16t-44 -43.5t-16 -60.5v-71h-139v72q0 24 -9.5 46.5t-26 38.5t-38.5 25.5t-47 9.5q-32 0 -60 -16t-44 -44t-16 -60q0 -50 35.5 -85.5t84.5 -35.5h72v-139h-72
q-32 0 -60 -16t-44 -44t-16 -60q0 -50 35.5 -85.5t84.5 -35.5q33 0 61 16.5t44 44t16 60.5v71h139v-71q0 -50 35.5 -85.5t84.5 -35.5q33 0 60.5 16.5t44 44t16.5 60t-16 60.5t-44 44t-61 16zM631 494q0 29 21 50t50 21q8 0 16 -2t15 -5.5t13 -8.5t11 -11t8.5 -13t5.5 -15
t2 -16q0 -20 -9.5 -36t-26 -25.5t-35.5 -9.5h-71v71zM321 423q-29 0 -50 20.5t-21 50t21 50.5t50 21q9 0 17 -2t15 -5.5t13 -8.5t11 -11t8.5 -13t5.5 -15t2 -16v-71h-72zM393 114q0 -30 -21 -50.5t-50.5 -20.5t-50.5 20.5t-21 50t21 50.5t50 21h72v-71zM442 234v139h139
v-139h-139v0zM701 43q-29 0 -50 20.5t-21 50.5v71h71q9 0 17 -2t15 -5.5t13 -8.5t11 -11t8.5 -13t5 -15t1.5 -16q0 -43 -37 -63q-16 -8 -34 -8zM701 43z" />
    <glyph glyph-name="uniE60F" unicode="&#xe60f;" 
d="M0 226h438v-438h-438v438zM0 771h438v-438h-438v438zM766 730q48 0 88.5 -23.5t64 -64t23.5 -88.5q0 -36 -14 -69t-37.5 -56.5t-56 -37t-68.5 -13.5q-74 0 -125 51t-51 125q-3 73 49.5 124.5t126.5 51.5zM766 771q-89 0 -153 -64t-64 -153t64 -153t153 -64t153 64t64 153
t-64 153t-153 64zM545 226h438v-438h-438v438z" />
    <glyph glyph-name="uniE610" unicode="&#xe610;" 
d="M1024 446q0 9 -6 15t-15 6t-15 -6t-6 -15v-43v-66v-270q0 -10 -4 -19t-10.5 -15.5t-15.5 -10t-19 -3.5h-842q-10 0 -19 3.5t-15.5 10t-10.5 15.5t-4 19v636q0 13 6.5 24t17.5 17.5t25 6.5h842q7 0 14 -2l-433 -389l-270 224q-9 8 -19 8q-2 0 -4.5 -0.5t-4.5 -1.5l-4 -2
q-2 -1 -4 -3q-7 -7 -7 -17q0 -5 2 -9.5t5 -7.5l281 -233l2 -4q2 -3 4 -5q10 -10 23 -6q10 1 15 7l4 4l4 5l87 78h-1l323 289l30 28l33 29q-3 6 -6.5 11.5t-8.5 9.5l-8 10q-5 4 -10.5 7.5t-11.5 6t-12 4.5t-12.5 3t-13.5 1h-836q-26 0 -47.5 -13t-34 -35.5t-12.5 -48.5v-631
q0 -40 27.5 -68.5t66.5 -28.5h836q39 0 66.5 28.5t27.5 68.5v268v1v109z" />
    <glyph glyph-name="uniE611" unicode="&#xe611;" horiz-adv-x="1464" 
d="M1346 692q-26 46 -57 82.5t-67.5 64t-79.5 42.5t-89 15q-25 0 -51.5 -4.5t-48 -11t-41.5 -14.5t-35 -16t-26.5 -15t-16.5 -11l-6 -4q-9 -11 -27.5 -17.5t-33.5 -7.5h-74q-12 0 -31.5 8.5t-26.5 16.5q-2 2 -6 4.5t-17 10.5t-26.5 15t-35 16t-42.5 15t-47.5 10.5t-52.5 4.5
q-60 0 -116.5 -27.5t-96.5 -68.5t-67 -90q-171 -315 -114 -673q6 -36 18 -65t26 -45t30 -28.5t30.5 -16t27 -7t19.5 -1.5t7 0l14 1q97 8 272 266q8 12 20 19t27 8h229h219q29 0 47 -27l1 -1q11 -18 24.5 -36.5t47.5 -62t65 -75.5t70 -60t70 -32l17 -2q0 2 6.5 0t19 1.5
t26.5 7.5t30 16.5t29.5 28.5t25 43.5t17.5 62.5q57 378 -103 660zM1383 38q-5 -30 -16 -51t-23.5 -29.5t-24 -13.5t-18.5 -5h-8h-14q-28 13 -67.5 51t-66.5 70.5t-62 78t-36 46.5q-39 48 -95 49h-76h-146h-145h-82q-27 -1 -54 -14.5t-41 -33.5q-160 -227 -224 -247h-12
l-22 2q-56 15 -71 103q-7 43 -10.5 87t-1.5 115.5t13.5 139t41 150t74.5 157.5q10 15 23.5 32t34.5 36t43.5 34t52.5 24.5t60 10.5q47 0 98.5 -19t79.5 -38l28 -19q5 -5 14 -9t19.5 -6.5t20 -4.5t15.5 -2l6 -1h80h5q4 0 14.5 1.5t19.5 3.5t20 7t19 11q3 3 10.5 8t29.5 18
t45 23t56.5 18.5t64.5 8.5q41 -1 75 -12.5t60 -33t44 -43t35 -49.5q46 -73 75 -157.5t40 -154t12.5 -142.5t-2.5 -117t-11 -83v0zM1100 598q0 45 -31.5 76.5t-75.5 31.5q-29 0 -54 -14.5t-39 -39t-14 -54.5q0 -44 31 -75.5t76 -31.5q29 0 53.5 14.5t39 39t14.5 53.5v0z
M993 539q-25 0 -42 17.5t-17 42t17 42t42 17.5q16 0 29.5 -8t21.5 -21.5t8 -30.5q0 -24 -17.5 -41.5t-41.5 -17.5v0zM1165 485q-29 0 -53.5 -14.5t-39 -39t-14.5 -54.5q0 -44 31.5 -75.5t75.5 -31.5q45 0 76.5 31.5t31.5 75.5q-1 18 -6 34.5t-15 29.5t-23.5 23t-29.5 15.5
t-34 5.5zM1165 318q-24 0 -41.5 17.5t-17.5 42t17.5 42t41.5 17.5q16 0 30 -8t21.5 -21.5t7.5 -30.5q0 -8 -2 -15.5t-5.5 -14t-9 -12t-12 -9.5t-14.5 -6t-16 -2zM407 647h-53v-118h-117v-52h117v-118h53v118h117v52h-117v118zM407 647z" />
    <glyph glyph-name="uniE612" unicode="&#xe612;" 
d="M400 313h97l-49 144zM682 880h-582q-8 0 -15 -3t-12 -8t-8 -12t-3 -14v-918q0 -15 11 -26t27 -11h824q10 0 18.5 5t13.5 13.5t5 18.5v676zM551 159l-31 88h-142l-29 -88h-76l138 389h76l142 -389h-78zM724 159h-68v282h68v-282zM724 479h-68v69h68v-69z" />
    <glyph glyph-name="uniE613" unicode="&#xe613;" 
d="M574 303l371 369q8 8 11.5 19.5t0 23t-11.5 20.5q-13 13 -31.5 13t-31.5 -13l-371 -369l-367 369q-13 13 -31.5 13t-32 -13t-13.5 -31.5t13 -31.5l368 -369l-371 -368q-13 -13 -13 -31.5t13 -31.5q3 -4 7 -6.5t8 -4t8.5 -2t8.5 -0.5q18 0 31 13l371 368l371 -372
q6 -6 14 -9.5t17 -3.5q19 0 32 13q8 9 11.5 20.5t0 23t-11.5 19.5zM574 303z" />
    <glyph glyph-name="uniE614" unicode="&#xe614;" 
d="M80 154h898v-70h-898v70zM80 420h898v-69h-898v69zM80 686h898v-69h-898v69z" />
    <glyph glyph-name="uniE615" unicode="&#xe615;" 
d="M711 5q7 -7 9.5 -16t0 -18t-9.5 -16q-10 -10 -24.5 -10.5t-24.5 10.5l-401 405q-11 10 -11 24.5t11 25.5l401 405q10 10 24.5 10t24.5 -10q7 -7 9.5 -16t0 -18.5t-9.5 -15.5l-365 -380z" />
    <glyph glyph-name="uniE616" unicode="&#xe616;" 
d="M749 416l-410 410q-9 6 -20.5 8t-22.5 0t-21 -8q-14 -15 -14 -31.5t14 -26.5l384 -384l-377 -378q-15 -14 -15 -31t15 -26q4 -5 9.5 -8t10.5 -5t10.5 -2t10.5 2t9 5t7 8l410 409q9 10 9 27t-9 31z" />
  </font>
</defs>
</svg>
